<svg width="24" height="24" viewBox="0 0 24 24" fill="none" xmlns="http://www.w3.org/2000/svg">
<path d="M20.6791 17.4082C19.6769 14.9592 17.7727 13.1224 15.4676 12.2041C16.7705 11.1837 17.5723 9.55102 17.5723 7.81633C17.5723 4.55102 15.0667 2 11.9598 2C8.85296 2 6.34741 4.55102 6.34741 7.71429C6.34741 9.44898 7.14919 11.0816 8.45207 12.102C6.14697 13.0204 4.24275 14.8571 3.24053 17.3061C2.83964 18.3265 2.93987 19.551 3.5412 20.4694C4.14253 21.4898 5.24497 22 6.44763 22H17.5723C18.7749 22 19.7772 21.3878 20.4787 20.4694C21.08 19.551 21.1803 18.4286 20.6791 17.4082ZM8.35185 7.71429C8.35185 5.67347 9.9554 4.04082 11.9598 4.04082C13.9643 4.04082 15.5678 5.67347 15.5678 7.71429C15.5678 9.7551 13.9643 11.3878 11.9598 11.3878C9.9554 11.3878 8.35185 9.7551 8.35185 7.71429ZM18.7749 19.449C18.4743 19.8571 18.0734 20.1633 17.5723 20.1633H6.34741C5.8463 20.1633 5.44542 19.9592 5.14475 19.449C4.84408 19.0408 4.84408 18.6327 5.04453 18.2245C6.24719 15.2653 8.95318 13.4286 11.9598 13.4286C14.9665 13.4286 17.6725 15.2653 18.8752 18.1224C19.0756 18.5306 18.9754 19.0408 18.7749 19.449Z" fill="black"/>
</svg>
