<svg width="24" height="24" viewBox="0 0 24 24" fill="none" xmlns="http://www.w3.org/2000/svg">
<path d="M14.8998 13.4C15.4998 12.7 15.8998 11.8 15.8998 10.9C15.8998 8.7 14.0998 7 11.9998 7C9.89982 7 8.09982 8.7 8.09982 10.8C8.09982 11.8 8.49982 12.7 9.09982 13.3C7.79982 14 6.79982 15 6.19982 16.4C5.89982 17.1 5.99982 18 6.39982 18.7C6.89982 19.4 7.69982 19.8 8.49982 19.8H15.3998C16.1998 19.8 16.9998 19.4 17.4998 18.7C17.9998 18 17.9998 17.2 17.6998 16.4C17.1998 15.1 16.1998 14 14.8998 13.4ZM10.0998 10.8C10.0998 9.8 10.9998 9 11.9998 9C12.9998 9 13.8998 9.8 13.8998 10.9C13.8998 12 12.9998 12.7 11.9998 12.7C10.9998 12.7 10.0998 11.9 10.0998 10.8ZM15.8998 17.6C15.7998 17.7 15.5998 17.8 15.4998 17.8H8.49982C8.29982 17.8 8.19982 17.7 8.09982 17.6C7.99982 17.6 7.99982 17.4 7.99982 17.2C8.69982 15.6 10.1998 14.6 11.9998 14.6C13.7998 14.6 15.2998 15.6 15.9998 17.2C15.9998 17.4 15.9998 17.6 15.8998 17.6Z" fill="black"/>
<path d="M7.29994 12.6C7.29994 12.1 6.89994 11.6 6.29994 11.6H2.99994C3.39994 10.6 4.39994 10 5.49994 10C7.19994 10 8.49994 8.7 8.49994 7C8.49994 5.3 7.09994 4 5.49994 4C3.89994 4 2.49994 5.3 2.49994 7C2.49994 7.6 2.69994 8.2 3.09994 8.7C2.19994 9.2 1.49994 9.9 1.19994 10.8C0.899938 11.4 0.999938 12.1 1.29994 12.7C1.69994 13.3 2.29994 13.6 2.99994 13.6H6.19994C6.79994 13.6 7.29994 13.2 7.29994 12.6ZM4.49994 7C4.49994 6.4 4.99994 6 5.49994 6C5.99994 6 6.49994 6.5 6.49994 7C6.49994 7.6 5.99994 8 5.49994 8C4.99994 8 4.49994 7.5 4.49994 7Z" fill="black"/>
<path d="M22.8 10.7999C22.4 9.8999 21.7 9.0999 20.9 8.5999C21.2 8.0999 21.5 7.4999 21.5 6.8999C21.5 5.2999 20.1 3.8999 18.5 3.8999C16.9 3.8999 15.5 5.1999 15.5 6.8999C15.5 8.5999 16.9 9.8999 18.5 9.8999C19.6 9.8999 20.6 10.4999 20.9 11.5999H17.7C17.1 11.5999 16.7 11.9999 16.7 12.5999C16.7 13.0999 17.1 13.5999 17.7 13.5999H20.9C21.6 13.5999 22.2 13.2999 22.6 12.6999C23 12.0999 23.1 11.3999 22.8 10.7999ZM18.5 5.9999C19.1 5.9999 19.5 6.4999 19.5 6.9999C19.5 7.5999 19 7.9999 18.5 7.9999C18 7.9999 17.5 7.4999 17.5 6.9999C17.5 6.3999 17.9 5.9999 18.5 5.9999Z" fill="black"/>
</svg>
